<svg width="48" height="48" viewBox="0 0 48 48" fill="none" xmlns="http://www.w3.org/2000/svg">
<path d="M0 24C0 10.7452 10.7452 0 24 0C37.2548 0 48 10.7452 48 24C48 37.2548 37.2548 48 24 48C10.7452 48 0 37.2548 0 24Z" fill="#FFDD2D"/>
<path d="M31.16 36.42C30.5733 36.9 29.8533 37.26 29 37.5C28.1733 37.74 27.2933 37.86 26.36 37.86C24.0133 37.86 22.2 37.2467 20.92 36.02C19.64 34.7933 19 33.0067 19 30.66V11.5H24V16.38H29.72V20.38H24V30.54C24 31.58 24.2533 32.38 24.76 32.94C25.2933 33.4733 26.0267 33.74 26.96 33.74C28.08 33.74 29.0133 33.4467 29.76 32.86L31.16 36.42Z" fill="#333333"/>
</svg>
