<svg width="142" height="48" viewBox="0 0 142 48" fill="none" xmlns="http://www.w3.org/2000/svg">
<path d="M0 24C0 10.7452 10.7452 0 24 0C37.2548 0 48 10.7452 48 24C48 37.2548 37.2548 48 24 48C10.7452 48 0 37.2548 0 24Z" fill="#FFDD2D"/>
<path d="M31.16 36.42C30.5733 36.9 29.8533 37.26 29 37.5C28.1733 37.74 27.2933 37.86 26.36 37.86C24.0133 37.86 22.2 37.2467 20.92 36.02C19.64 34.7933 19 33.0067 19 30.66V11.5H24V16.38H29.72V20.38H24V30.54C24 31.58 24.2533 32.38 24.76 32.94C25.2933 33.4733 26.0267 33.74 26.96 33.74C28.08 33.74 29.0133 33.4467 29.76 32.86L31.16 36.42Z" fill="#333333"/>
<path d="M62.1864 15.98C64.8797 15.98 67.0131 16.7667 68.5864 18.34C70.1597 19.8867 70.9464 22.22 70.9464 25.34V37.58H65.9464V25.98C65.9464 24.1133 65.5331 22.7133 64.7064 21.78C63.8797 20.82 62.6931 20.34 61.1464 20.34C59.4664 20.34 58.1197 20.9 57.1064 22.02C56.0931 23.1133 55.5864 24.6867 55.5864 26.74V37.58H50.5864V25.98C50.5864 24.1133 50.1731 22.7133 49.3464 21.78C48.5197 20.82 47.3331 20.34 45.7864 20.34C44.0797 20.34 42.7197 20.8867 41.7064 21.98C40.7197 23.0733 40.2264 24.66 40.2264 26.74V37.58H35.2264V16.22H39.9864V18.94C40.7864 17.98 41.7864 17.2467 42.9864 16.74C44.1864 16.2333 45.5197 15.98 46.9864 15.98C48.5864 15.98 49.9997 16.2867 51.2264 16.9C52.4797 17.4867 53.4664 18.3667 54.1864 19.54C55.0664 18.42 56.1997 17.5533 57.5864 16.94C58.9731 16.3 60.5064 15.98 62.1864 15.98Z" fill="#333333"/>
<path d="M98.4111 16.22V37.58H93.6511V34.82C92.8244 35.8333 91.7978 36.5933 90.5711 37.1C89.3711 37.6067 88.0378 37.86 86.5711 37.86C84.4911 37.86 82.6244 37.4067 80.9711 36.5C79.3444 35.5933 78.0644 34.3133 77.1311 32.66C76.2244 31.0067 75.7711 29.0867 75.7711 26.9C75.7711 24.7133 76.2244 22.8067 77.1311 21.18C78.0644 19.5267 79.3444 18.2467 80.9711 17.34C82.6244 16.4333 84.4911 15.98 86.5711 15.98C87.9578 15.98 89.2244 16.22 90.3711 16.7C91.5444 17.18 92.5578 17.8867 93.4111 18.82V16.22H98.4111ZM87.1311 33.58C88.9711 33.58 90.4911 32.9667 91.6911 31.74C92.8911 30.5133 93.4911 28.9 93.4911 26.9C93.4911 24.9 92.8911 23.2867 91.6911 22.06C90.4911 20.8333 88.9711 20.22 87.1311 20.22C85.2911 20.22 83.7711 20.8333 82.5711 22.06C81.3978 23.2867 80.8111 24.9 80.8111 26.9C80.8111 28.9 81.3978 30.5133 82.5711 31.74C83.7711 32.9667 85.2911 33.58 87.1311 33.58Z" fill="#333333"/>
<path d="M116.953 36.42C116.366 36.9 115.646 37.26 114.793 37.5C113.966 37.74 113.086 37.86 112.153 37.86C109.806 37.86 107.993 37.2467 106.713 36.02C105.433 34.7933 104.793 33.0067 104.793 30.66V11.5H109.793V16.38H115.513V20.38H109.793V30.54C109.793 31.58 110.046 32.38 110.553 32.94C111.086 33.4733 111.82 33.74 112.753 33.74C113.873 33.74 114.806 33.4467 115.553 32.86L116.953 36.42Z" fill="#333333"/>
<path d="M130.543 33.62C132.863 33.62 134.796 32.8467 136.343 31.3L138.983 34.38C138.049 35.5267 136.849 36.3933 135.383 36.98C133.916 37.5667 132.263 37.86 130.423 37.86C128.076 37.86 126.009 37.3933 124.223 36.46C122.436 35.5267 121.049 34.2333 120.063 32.58C119.103 30.9 118.623 29.0067 118.623 26.9C118.623 24.82 119.089 22.9533 120.023 21.3C120.983 19.62 122.289 18.3133 123.943 17.38C125.623 16.4467 127.516 15.98 129.623 15.98C131.623 15.98 133.436 16.42 135.063 17.3C136.716 18.1533 138.023 19.3933 138.983 21.02C139.943 22.62 140.423 24.5 140.423 26.66L124.063 29.86C124.569 31.0867 125.383 32.02 126.503 32.66C127.623 33.3 128.969 33.62 130.543 33.62ZM129.623 19.98C127.783 19.98 126.289 20.58 125.143 21.78C124.023 22.98 123.463 24.5933 123.463 26.62V26.66L135.543 24.34C135.196 23.0333 134.489 21.98 133.423 21.18C132.383 20.38 131.116 19.98 129.623 19.98Z" fill="#333333"/>
</svg>
